<?xml version="1.0" encoding="UTF-8" standalone="no"?>
<svg
   width="500pt"
   height="500pt"
   viewBox="0 0 500 500"
   version="1.1"
   id="svg271"
   sodipodi:docname="Iron L Peaks Logo.svg"
   inkscape:version="1.3.2 (091e20e, 2023-11-25, custom)"
   inkscape:export-filename="gaussian_fit_ridgeline.png"
   inkscape:export-xdpi="96"
   inkscape:export-ydpi="96"
   xml:space="preserve"
   xmlns:inkscape="http://www.inkscape.org/namespaces/inkscape"
   xmlns:sodipodi="http://sodipodi.sourceforge.net/DTD/sodipodi-0.dtd"
   xmlns="http://www.w3.org/2000/svg"
   xmlns:svg="http://www.w3.org/2000/svg"
   xmlns:rdf="http://www.w3.org/1999/02/22-rdf-syntax-ns#"
   xmlns:cc="http://creativecommons.org/ns#"
   xmlns:dc="http://purl.org/dc/elements/1.1/"><sodipodi:namedview
     id="namedview271"
     pagecolor="#ffffff"
     bordercolor="#000000"
     borderopacity="0.25"
     inkscape:showpageshadow="2"
     inkscape:pageopacity="0.0"
     inkscape:pagecheckerboard="0"
     inkscape:deskcolor="#d1d1d1"
     inkscape:document-units="pt"
     inkscape:zoom="0.74207424"
     inkscape:cx="374.62559"
     inkscape:cy="519.4898"
     inkscape:window-width="1920"
     inkscape:window-height="1094"
     inkscape:window-x="-11"
     inkscape:window-y="-11"
     inkscape:window-maximized="1"
     inkscape:current-layer="svg271"
     inkscape:export-bgcolor="#ffffff00" /><metadata
     id="metadata1"><rdf:RDF><cc:Work><dc:type
           rdf:resource="http://purl.org/dc/dcmitype/StillImage" /><dc:date>2026-01-16T17:36:03.878568</dc:date><dc:format>image/svg+xml</dc:format><dc:creator><cc:Agent><dc:title>Matplotlib v3.10.0, https://matplotlib.org/</dc:title></cc:Agent></dc:creator></cc:Work></rdf:RDF></metadata><defs
     id="defs1"><style
       type="text/css"
       id="style1">*{stroke-linejoin: round; stroke-linecap: butt}</style></defs><path
     d="m 171.86594,248.49785 c 25.54556,-73.74877 52.32371,-145.07462 77.99431,-218.56834 0.48233,39.573538 3.0726,78.80702 3.5728,118.33806 0.26796,11.51927 -1.91147,22.10335 -3.66212,32.51745 -3.53708,19.93554 -6.69902,40.25362 -9.75375,60.61426 10.77198,26.65154 21.95484,52.28295 33.03056,78.21191 1.80425,4.42066 4.69822,9.77649 2.5724,16.40751 -11.29006,49.69005 -22.5801,99.38014 -34.06667,148.81517 -77.31545,-0.46756 -154.630891,0.0425 -231.9642105,0.0425 C 19.253691,460.35013 29.454047,437.05656 39.13634,412.57286 46.442721,402.32878 54.785214,397.78058 62.466745,389.57685 79.437557,371.46908 96.033227,351.321 111.9322,328.36751 c -0.76816,22.99601 -3.9301,45.01437 -5.18059,67.88285 6.39533,-10.62665 12.4155,-22.44344 19.13236,-31.9224 2.07222,23.08103 3.46562,46.50209 5.93087,69.3706 12.91567,-62.22948 26.6531,-123.52382 40.0511,-185.20075 z"
     fill="#2f3b73"
     opacity="1"
     stroke="#2f3b73"
     stroke-width="0.688902"
     id="path150" /><path
     d="m 249.86025,29.92951 c 25.97426,71.15586 51.50194,143.24685 77.44049,214.48772 0.66097,0.29753 1.96504,0.89265 2.60815,1.14767 -3.98367,21.50829 -3.85863,45.65195 -6.10949,68.2654 -0.73243,15.55738 -4.21592,34.60027 1.14329,47.60726 13.34441,40.33867 26.84961,80.42227 40.56918,120.03832 2.32232,-38.17082 3.28697,-76.68171 5.25202,-114.93755 0.92893,-21.38075 2.32233,-42.71899 1.76853,-64.26978 l 0.6967,1.31769 c 16.57782,31.66733 35.83521,54.49334 54.96756,76.12913 10.4326,12.28435 21.88342,18.91537 31.95874,32.98501 0.1429,0.21254 0.41086,0.55258 0.5359,0.7226 6.96698,12.79446 12.75492,28.73438 19.0252,43.35665 3.51921,8.88383 7.86015,16.36496 10.09314,27.71419 -82.74609,1.61526 -165.51008,0.59511 -248.25619,0.34005 11.48657,-49.43503 22.77661,-99.12512 34.06667,-148.81517 2.12582,-6.63102 -0.76815,-11.98685 -2.5724,-16.40751 -11.07572,-25.92896 -22.25858,-51.56037 -33.03056,-78.21191 3.05473,-20.36064 6.21667,-40.67872 9.75375,-60.61426 1.75065,-10.4141 3.93008,-20.99818 3.66212,-32.51745 -0.5002,-39.53104 -3.09047,-78.764522 -3.5728,-118.33806 z"
     fill="#63996c"
     opacity="1"
     stroke="#63996c"
     stroke-width="0.688902"
     id="path151" /><path
     d="m 156.19921,248.75289 c 1.07184,-2.33786 2.12581,-4.76074 3.16194,-7.1836 4.18017,2.08283 8.36035,4.33564 12.50479,6.92856 -13.398,61.6769 -27.13543,122.97125 -40.0511,185.20072 -2.46525,-22.86849 -3.85865,-46.28954 -5.93087,-69.3706 -6.71686,9.47898 -12.73703,21.29576 -19.13236,31.9224 1.25049,-22.86848 4.41243,-44.88683 5.18059,-67.88284 l -0.17866,-0.85014 c 16.64927,-19.76547 30.95834,-48.66988 44.44567,-78.7645 z"
     fill="#62996b"
     opacity="1"
     stroke="#62996b"
     stroke-width="0.688902"
     id="path154" /><path
     d="m 329.90889,245.5649 c 3.41202,-0.76511 6.71686,-2.97547 9.75375,-6.75854 10.9685,21.12576 21.11527,44.67433 32.86978,63.46219 0.5538,21.55079 -0.8396,42.88903 -1.76853,64.26978 -1.96505,38.25584 -2.9297,76.76673 -5.25202,114.93755 -13.71957,-39.61605 -27.22477,-79.69965 -40.56918,-120.03832 -5.35921,-13.00699 -1.87572,-32.04988 -1.14329,-47.60726 2.25086,-22.61345 2.12582,-46.75711 6.10949,-68.2654 z"
     fill="#303b71"
     opacity="1"
     stroke="#303b71"
     stroke-width="0.688902"
     id="path155" /><g
     id="line2d_29"
     style="fill:#7d342b;fill-opacity:1;stroke:#000000;stroke-dasharray:none;stroke-dashoffset:0;stroke-opacity:0.9"
     transform="matrix(0.60178907,0,0,1.4319254,-21.472252,-64.012475)" /><g
     id="line2d_30"
     style="fill:#7d342b;fill-opacity:1;stroke:#000000;stroke-dasharray:none;stroke-dashoffset:0;stroke-opacity:0.9"
     transform="matrix(0.60178907,0,0,1.4319254,-21.472252,-64.012475)" /><g
     id="line2d_31"
     style="fill:#7d342b;fill-opacity:1;stroke:#000000;stroke-dasharray:none;stroke-dashoffset:0;stroke-opacity:0.9"
     transform="matrix(0.60178907,0,0,1.4319254,-21.472252,-64.012475)" /><g
     id="line2d_32"
     style="fill:#7d342b;fill-opacity:1;stroke:#000000;stroke-dasharray:none;stroke-dashoffset:0;stroke-opacity:0.9"
     transform="matrix(0.60178907,0,0,1.4319254,-21.472252,-64.012475)" /><g
     id="line2d_33"
     style="fill:#7d342b;fill-opacity:1;stroke:#000000;stroke-dasharray:none;stroke-dashoffset:0;stroke-opacity:0.9"
     transform="matrix(0.60178907,0,0,1.4319254,-21.472252,-64.012475)" /><g
     id="line2d_34"
     style="fill:#7d342b;fill-opacity:1;stroke:#000000;stroke-dasharray:none;stroke-dashoffset:0;stroke-opacity:0.9"
     transform="matrix(0.60178907,0,0,1.4319254,-21.472252,-64.012475)" /><g
     id="line2d_35"
     style="fill:#7d342b;fill-opacity:1;stroke:#000000;stroke-dasharray:none;stroke-dashoffset:0;stroke-opacity:0.9"
     transform="matrix(0.60178907,0,0,1.4319254,-21.472252,-64.012475)" /><g
     id="line2d_36"
     style="fill:#7d342b;fill-opacity:1;stroke:#000000;stroke-dasharray:none;stroke-dashoffset:0;stroke-opacity:0.9"
     transform="matrix(0.60178907,0,0,1.4319254,-21.472252,-64.012475)" /><g
     id="line2d_37"
     style="fill:#7d342b;fill-opacity:1;stroke:#000000;stroke-dasharray:none;stroke-dashoffset:0;stroke-opacity:0.9"
     transform="matrix(0.60178907,0,0,1.4319254,-21.472252,-64.012475)" /><g
     id="line2d_38"
     style="fill:#7d342b;fill-opacity:1;stroke:#000000;stroke-dasharray:none;stroke-dashoffset:0;stroke-opacity:0.9"
     transform="matrix(0.60178907,0,0,1.4319254,-21.472252,-64.012475)" /><g
     id="line2d_39"
     style="fill:#7d342b;fill-opacity:1;stroke:#000000;stroke-dasharray:none;stroke-dashoffset:0;stroke-opacity:0.9"
     transform="matrix(0.60178907,0,0,1.4319254,-21.472252,-64.012475)" /><g
     id="line2d_40"
     style="fill:#7d342b;fill-opacity:1;stroke:#000000;stroke-dasharray:none;stroke-dashoffset:0;stroke-opacity:0.9"
     transform="matrix(0.60178907,0,0,1.4319254,-21.472252,-64.012475)" /><g
     id="line2d_41"
     style="fill:#7d342b;fill-opacity:1;stroke:#000000;stroke-dasharray:none;stroke-dashoffset:0;stroke-opacity:0.9"
     transform="matrix(0.60178907,0,0,1.4319254,-21.472252,-64.012475)" /><g
     id="line2d_42"
     style="fill:#7d342b;fill-opacity:1;stroke:#000000;stroke-dasharray:none;stroke-dashoffset:0;stroke-opacity:0.9"
     transform="matrix(0.60178907,0,0,1.4319254,-21.472252,-64.012475)" /><g
     id="line2d_43"
     style="fill:#7d342b;fill-opacity:1;stroke:#000000;stroke-dasharray:none;stroke-dashoffset:0;stroke-opacity:0.9"
     transform="matrix(0.60178907,0,0,1.4319254,-21.472252,-64.012475)" /><g
     id="line2d_44"
     style="fill:#7d342b;fill-opacity:1;stroke:#000000;stroke-dasharray:none;stroke-dashoffset:0;stroke-opacity:0.9"
     transform="matrix(0.60178907,0,0,1.4319254,-21.472252,-64.012475)" /><g
     id="line2d_45"
     style="fill:#7d342b;fill-opacity:1;stroke:#000000;stroke-dasharray:none;stroke-dashoffset:0;stroke-opacity:0.9"
     transform="matrix(0.60178907,0,0,1.4319254,-21.472252,-64.012475)" /><g
     id="line2d_46"
     style="fill:#7d342b;fill-opacity:1;stroke:#000000;stroke-dasharray:none;stroke-dashoffset:0;stroke-opacity:0.9"
     transform="matrix(0.60178907,0,0,1.4319254,-21.472252,-64.012475)" /><g
     id="line2d_47"
     style="fill:#7d342b;fill-opacity:1;stroke:#000000;stroke-dasharray:none;stroke-dashoffset:0;stroke-opacity:0.9"
     transform="matrix(0.60178907,0,0,1.4319254,-21.472252,-64.012475)" /><g
     id="patch_5"
     style="fill:#7d342b;fill-opacity:1;stroke:#000000;stroke-dasharray:none;stroke-dashoffset:0;stroke-opacity:0.9"
     transform="matrix(0.60178907,0,0,1.4319254,-21.472252,-64.012475)"><g
       id="g1"><path
         d="m 50.94625,378.25463 1.600661,-0.0873 1.600662,-0.0828 1.600661,-0.078 1.600661,-0.0729 1.600662,-0.0675 1.600661,-0.0619 1.600661,-0.056 1.600662,-0.0499 1.600661,-0.0436 1.600661,-0.0371 1.600662,-0.0305 1.600661,-0.0238 1.600661,-0.0169 1.600662,-0.01 1.600661,-0.003 1.600661,0.004 1.600661,0.0108 1.600662,0.0177 1.600661,0.0245 1.600661,0.0312 1.600662,0.0378 1.600661,0.0443 1.600661,0.0506 1.600662,0.0566 1.600661,0.0625 1.600661,0.0681 1.600662,0.0735 1.600661,0.0786 1.600661,0.0833 1.600662,0.0878 1.60066,0.092 1.60066,0.0958 1.60066,0.0993 1.60067,0.10243 1.60066,0.10523 1.60066,0.10767 1.60066,0.10977 1.60066,0.11151 1.60066,0.1129 1.60066,0.11397 1.60066,0.11468 1.60067,0.11509 1.60066,0.11515 1.60066,0.11493 1.60066,0.11441 1.60066,0.1136 1.60066,0.11254 1.60066,0.11122 1.60066,0.10966 1.60067,0.10788 1.60066,0.10591 1.60066,0.10374 1.60066,0.10142 1.60066,0.0989 1.60066,0.0963 1.60066,0.0936 1.60066,0.0908 1.60067,0.0878 1.60066,0.0849 1.60066,0.0818 1.60066,0.0788 1.60066,0.0757 1.60066,0.0726 1.60066,0.0695 1.60067,0.0664 1.60066,0.0633 1.60066,0.0603 1.60066,0.0573 1.60066,0.0544 1.60066,0.0515 1.60066,0.0487 1.60066,0.046 1.60067,0.0434 1.60066,0.0408 1.60066,0.0384 1.60066,0.036 1.60066,0.0337 1.60066,0.0315 1.60066,0.0294 1.60067,0.0274 1.60066,0.0255 1.60066,0.0237 1.60066,0.022 1.60066,0.0204 1.60066,0.0188 1.60066,0.0174 1.60066,0.0161 1.60067,0.0148 1.60066,0.0136 1.60066,0.0125 1.60066,0.0114 1.60066,0.0104 1.60066,0.01 1.60066,0.009 1.60067,0.008 1.60066,0.007 1.60066,0.007"
         clip-path="url(#p091ce7e2fb)"
         style="fill:#b7400f;fill-opacity:1;stroke:#000000;stroke-dasharray:none;stroke-dashoffset:0;stroke-opacity:0.9;stroke-width:1.5"
         id="path81" /><path
         d="m 50.94625,378.68598 19.207936,-2.15672 14.405952,-1.54455 9.603968,-0.82707 8.003304,-0.493 8.00331,-0.275 8.00331,-0.036 8.0033,0.20579 8.00331,0.43179 9.60397,0.76995 11.20463,1.14392 35.21454,3.81364 11.20463,0.92109 11.20463,0.70991 12.80529,0.57102 14.40596,0.39625 17.60727,0.24649 8.00331,0.0584 v 0"
         clip-path="url(#p091ce7e2fb)"
         style="fill:#b7400f;fill-opacity:1;stroke:#000000;stroke-dasharray:none;stroke-dashoffset:0;stroke-opacity:0.9;stroke-width:1.5"
         id="path82" /><path
         d="m 50.94625,380.07924 9.603968,-0.96767 9.603968,-1.18216 9.603968,-1.38859 11.204629,-1.83855 36.815207,-6.28829 8.00331,-1.03267 8.00331,-0.78049 6.40264,-0.41231 6.40265,-0.20652 6.40264,0.007 6.40265,0.22056 6.40264,0.42555 6.40265,0.61454 8.0033,0.99898 9.60397,1.46313 12.80529,2.21929 22.40926,3.91595 11.20463,1.70137 9.60397,1.24356 9.60397,1.02932 9.60396,0.82029 11.20463,0.71879 12.8053,0.56145 14.40595,0.3853 16.00661,0.22819 v 0"
         clip-path="url(#p091ce7e2fb)"
         style="fill:#b7400f;fill-opacity:1;stroke:#000000;stroke-dasharray:none;stroke-dashoffset:0;stroke-opacity:0.9;stroke-width:1.5"
         id="path83" /><path
         d="m 50.94625,379.34946 17.607275,-0.75098 16.006613,-0.90312 12.80529,-0.93024 11.204632,-1.01393 11.20463,-1.25147 9.60396,-1.30492 9.60397,-1.55875 8.00331,-1.51527 8.00331,-1.71912 9.60396,-2.30701 24.00992,-5.97568 4.80199,-0.93257 4.80198,-0.72945 4.80199,-0.48131 4.80198,-0.20114 4.80198,0.093 4.80199,0.38061 4.80198,0.64242 4.80198,0.8633 6.40265,1.40782 9.60397,2.41477 14.40595,3.65928 9.60397,2.18462 8.0033,1.60147 8.00331,1.39928 9.60397,1.43195 9.60397,1.19591 11.20463,1.14683 12.80529,1.04869 14.40595,0.92371 16.00661,0.79075 19.20794,0.71476 24.00992,0.6477 28.8119,0.54297 36.81521,0.46584 49.6205,0.39655 70.4291,0.32683 108.84497,0.26001 132.85489,0.15338 v 0"
         clip-path="url(#p091ce7e2fb)"
         style="fill:#b7400f;fill-opacity:1;stroke:#000000;stroke-dasharray:none;stroke-dashoffset:0;stroke-opacity:0.9;stroke-width:1.5"
         id="path84" /><path
         d="m 57.348895,382.39862 17.607275,-0.35987 14.405952,-0.51789 11.204628,-0.6052 11.20463,-0.837 9.60397,-0.94089 9.60397,-1.17838 9.60396,-1.43869 8.00331,-1.40678 9.60397,-1.93591 9.60397,-2.18739 11.20463,-2.81421 16.00661,-4.30192 14.40595,-3.82586 9.60397,-2.3281 8.0033,-1.70284 6.40265,-1.16012 6.40265,-0.94843 6.40264,-0.71214 6.40265,-0.45703 6.40264,-0.18965 6.40265,0.0829 6.40264,0.35311 6.40265,0.61388 6.40264,0.85829 6.40265,1.08026 8.00331,1.62003 8.0033,1.8612 11.20463,2.88103 32.01323,8.48008 9.60396,2.24741 9.60397,2.00443 8.00331,1.46641 8.00331,1.27657 9.60396,1.28765 9.60397,1.03932 9.60397,0.8181 11.20463,0.71697 12.80529,0.56912 14.40595,0.40558 11.20463,0.1957 v 0"
         clip-path="url(#p091ce7e2fb)"
         style="fill:#b7400f;fill-opacity:1;stroke:#000000;stroke-dasharray:none;stroke-dashoffset:0;stroke-opacity:0.9;stroke-width:1.5"
         id="path85" /><path
         d="m 92.563444,382.33886 17.607276,-0.39017 14.40595,-0.54407 11.20463,-0.62356 11.20463,-0.85166 9.60397,-0.9501 9.60396,-1.18584 8.00331,-1.18764 8.00331,-1.38136 8.0033,-1.58125 8.00331,-1.78059 9.60397,-2.38697 9.60397,-2.62826 11.20463,-3.29865 32.01322,-9.62034 8.00331,-2.11614 8.00331,-1.86611 6.40264,-1.27087 6.40265,-1.04289 6.40264,-0.7913 6.40265,-0.5215 6.40264,-0.23952 6.40265,0.0481 6.40264,0.33452 6.40265,0.61314 6.40264,0.87751 6.40265,1.12178 6.40265,1.34087 8.0033,1.93916 8.00331,2.17163 11.20463,3.30152 30.41256,9.17097 9.60397,2.61604 9.60397,2.37239 8.0033,1.76745 8.00331,1.56783 8.00331,1.36815 8.0033,1.17506 9.60397,1.17197 9.60397,0.93785 11.20463,0.83963 11.20463,0.61392 12.80529,0.48702 16.00661,0.37783 3.20133,0.0529 v 0"
         clip-path="url(#p091ce7e2fb)"
         style="fill:#b7400f;fill-opacity:1;stroke:#000000;stroke-dasharray:none;stroke-dashoffset:0;stroke-opacity:0.9;stroke-width:1.5"
         id="path86" /><path
         d="m 134.18064,382.28256 17.60727,-0.42424 14.40595,-0.58068 11.20463,-0.65787 11.20463,-0.89159 9.60397,-0.98974 9.60397,-1.23209 8.00331,-1.23312 8.0033,-1.43555 8.00331,-1.64728 8.00331,-1.86249 8.0033,-2.0739 9.60397,-2.74986 9.60397,-2.99702 11.20463,-3.728 30.41256,-10.27022 8.00331,-2.41874 8.00331,-2.16632 6.40264,-1.50715 6.40265,-1.27337 6.40264,-1.01341 6.40265,-0.7322 4.80198,-0.35501 4.80198,-0.18365 4.80199,-0.0101 4.80198,0.16364 4.80199,0.33537 6.40264,0.70698 6.40265,0.98977 6.40264,1.25179 6.40265,1.488 6.40264,1.69431 8.00331,2.35747 9.60397,3.08917 14.40595,4.91377 17.60727,5.9667 9.60397,3.04503 9.60397,2.80948 8.00331,2.12915 8.0033,1.92015 8.00331,1.7052 8.00331,1.49189 8.0033,1.28647 9.60397,1.29069 9.60397,1.0414 9.60397,0.824 11.20463,0.73055 12.80529,0.59201 14.40595,0.43582 8.00331,0.16495 v 0"
         clip-path="url(#p091ce7e2fb)"
         style="fill:#b7400f;fill-opacity:1;stroke:#000000;stroke-dasharray:none;stroke-dashoffset:0;stroke-opacity:0.9;stroke-width:1.5"
         id="path87" /><path
         d="m 166.19386,382.22925 17.60728,-0.4497 14.40595,-0.60347 11.20463,-0.67483 11.20463,-0.90612 9.60397,-0.99911 9.60397,-1.23813 8.0033,-1.23583 8.00331,-1.43703 8.00331,-1.64918 8.0033,-1.86735 8.00331,-2.08535 8.00331,-2.29578 9.60396,-3.00965 9.60397,-3.2444 12.80529,-4.57731 24.00992,-8.6527 9.60397,-3.17733 8.00331,-2.39415 6.40264,-1.70183 6.40265,-1.47833 6.40264,-1.22717 6.40265,-0.95257 4.80198,-0.5229 4.80199,-0.35214 4.80198,-0.17746 4.80198,-8e-4 4.80199,0.17587 4.80198,0.35058 4.80199,0.52138 6.40264,0.95064 6.40265,1.22539 6.40264,1.47671 6.40265,1.70041 8.0033,2.3927 8.00331,2.62818 11.20463,3.94471 32.01323,11.48144 9.60396,3.1349 9.60397,2.87552 8.00331,2.17203 8.0033,1.95614 8.00331,1.73723 8.00331,1.52197 8.00331,1.31582 9.60396,1.32576 9.60397,1.07635 9.60397,0.85835 11.20463,0.76878 12.80529,0.6317 14.40595,0.47371 9.60397,0.21353 v 0"
         clip-path="url(#p091ce7e2fb)"
         style="fill:#b7400f;fill-opacity:1;stroke:#000000;stroke-dasharray:none;stroke-dashoffset:0;stroke-opacity:0.9;stroke-width:1.5"
         id="path88" /><path
         d="m 50.94625,380.47553 48.01984,-0.65405 36.81521,-0.71075 30.41256,-0.79738 25.61059,-0.8867 22.40925,-1.00347 19.20794,-1.09141 16.00661,-1.12568 14.40596,-1.22935 12.80529,-1.30829 11.20463,-1.34865 11.20463,-1.57797 9.60396,-1.56812 9.60397,-1.79981 8.00331,-1.70077 8.0033,-1.904 8.00331,-2.12473 8.00331,-2.35844 8.0033,-2.59644 8.00331,-2.82417 9.60397,-3.64176 25.61058,-9.91746 6.40265,-2.09831 4.80198,-1.34363 4.80198,-1.09652 4.80199,-0.80995 4.80198,-0.49246 3.20132,-0.14173 3.20133,0.0109 3.20132,0.16334 4.80198,0.52366 4.80199,0.83866 4.80198,1.12181 4.80198,1.36483 6.40265,2.11973 8.00331,2.9775 30.41256,11.73885 8.00331,2.72259 8.0033,2.48791 8.00331,2.25047 8.00331,2.02189 8.0033,1.80879 9.60397,1.9155 9.60397,1.66894 9.60397,1.45464 11.20463,1.46528 12.80529,1.4184 12.80529,1.19361 14.40595,1.12526 16.00661,1.03424 19.20794,1.00706 22.40926,0.93039 25.61058,0.82634 30.41256,0.7471 36.81521,0.66966 44.81852,0.58525 33.61389,0.3272 v 0"
         clip-path="url(#p091ce7e2fb)"
         style="fill:#b7400f;fill-opacity:1;stroke:#000000;stroke-dasharray:none;stroke-dashoffset:0;stroke-opacity:0.9;stroke-width:1.5"
         id="path89" /><path
         d="m 193.40511,381.78804 14.40595,-0.59808 11.20463,-0.6765 9.60397,-0.77255 9.60396,-0.99261 8.00331,-1.02701 8.00331,-1.23752 8.0033,-1.47573 8.00331,-1.74136 6.40265,-1.60187 6.40264,-1.80061 6.40265,-2.00982 6.40264,-2.22734 6.40265,-2.45051 6.40264,-2.67611 6.40265,-2.90043 6.40264,-3.11923 6.40265,-3.32793 8.0033,-4.42992 8.00331,-4.69122 9.60397,-5.89788 16.00661,-10.16577 12.80529,-8.04127 8.00331,-4.79224 6.40265,-3.62144 6.40264,-3.37643 6.40265,-3.08125 4.80198,-2.08863 4.80198,-1.87746 4.80199,-1.64939 4.80198,-1.40625 4.80199,-1.15013 4.80198,-0.88326 4.80198,-0.60809 4.80199,-0.32714 4.80198,-0.0431 4.80199,0.24134 4.80198,0.52349 4.80198,0.80069 4.80199,1.07034 4.80198,1.32997 4.80199,1.57726 4.80198,1.81009 4.80198,2.02657 4.80199,2.22503 6.40264,3.24171 6.40265,3.51093 8.0033,4.68914 9.60397,5.93288 32.01323,20.11822 8.00331,4.68688 8.0033,4.42472 6.40265,3.3233 6.40264,3.11432 6.40265,2.89534 6.40264,2.67095 6.40265,2.44536 6.40264,2.22229 6.40265,2.00493 6.40264,1.79594 6.40265,1.59746 8.00331,1.73626 8.0033,1.47112 8.00331,1.23341 8.00331,1.02342 9.60397,0.98893 9.60396,0.76952 11.20463,0.67368 12.80529,0.54153 1.60066,0.0539 v 0"
         clip-path="url(#p091ce7e2fb)"
         style="fill:#b7400f;fill-opacity:1;stroke:#000000;stroke-dasharray:none;stroke-dashoffset:0;stroke-opacity:0.9;stroke-width:1.5"
         id="path90" /><path
         d="m 50.94625,380.82229 56.02315,-0.59902 43.21785,-0.67471 35.21455,-0.76825 28.8119,-0.84891 24.00992,-0.9262 20.8086,-1.02649 17.60728,-1.08687 16.00661,-1.2157 14.40595,-1.33158 12.80529,-1.42082 11.20463,-1.46788 9.60397,-1.4576 9.60397,-1.67313 9.60396,-1.92179 8.00331,-1.81666 8.00331,-2.03347 8.0033,-2.26754 8.00331,-2.51303 8.00331,-2.75915 8.00331,-2.98835 9.60396,-3.82551 19.20794,-7.78144 6.40264,-2.33383 4.80199,-1.5548 4.80198,-1.3332 4.80199,-1.06586 4.80198,-0.75915 3.20132,-0.32056 3.20133,-0.16506 3.20132,-0.007 3.20132,0.15212 3.20132,0.30799 4.80199,0.74141 4.80198,1.05003 4.80198,1.31972 4.80199,1.54392 6.40264,2.32348 8.00331,3.17232 22.40926,9.04905 8.00331,2.95222 8.0033,2.7186 8.00331,2.47158 8.00331,2.2274 8.0033,1.99592 8.00331,1.78231 9.60397,1.88508 9.60397,1.64117 9.60396,1.43003 11.20463,1.4406 12.80529,1.39508 12.80529,1.1748 14.40595,1.10855 16.00662,1.02002 19.20793,0.99454 22.40926,0.92027 25.61058,0.81877 30.41257,0.74162 36.81521,0.66607 36.81521,0.49321 v 0"
         clip-path="url(#p091ce7e2fb)"
         style="fill:#b7400f;fill-opacity:1;stroke:#000000;stroke-dasharray:none;stroke-dashoffset:0;stroke-opacity:0.9;stroke-width:1.5"
         id="path91" /><path
         d="m 257.43156,382.24979 17.60727,-0.42752 14.40596,-0.57227 12.80529,-0.7469 11.20463,-0.89192 9.60396,-0.97963 9.60397,-1.20982 9.60397,-1.46748 8.00331,-1.43612 8.0033,-1.63971 8.00331,-1.84724 8.00331,-2.05253 9.60396,-2.72009 9.60397,-2.96979 11.20463,-3.71287 20.8086,-7.21809 12.80529,-4.30595 9.60397,-2.97208 8.0033,-2.21864 6.40265,-1.56197 6.40265,-1.3418 6.40264,-1.09667 6.40265,-0.83074 6.40264,-0.5488 6.40265,-0.25619 4.80198,0.003 4.80198,0.17063 6.40265,0.48456 6.40264,0.76935 6.40265,1.03926 6.40265,1.2894 6.40264,1.51542 6.40265,1.71379 8.0033,2.37472 9.60397,3.10695 14.40595,4.95432 19.20794,6.60718 11.20463,3.60388 9.60397,2.84535 8.0033,2.16728 8.00331,1.96653 8.0033,1.75948 8.00331,1.55293 8.00331,1.35257 9.60397,1.37391 9.60397,1.12549 9.60396,0.90567 11.20463,0.81916 12.80529,0.68085 14.40595,0.51734 14.40596,0.32886 v 0"
         clip-path="url(#p091ce7e2fb)"
         style="fill:#b7400f;fill-opacity:1;stroke:#000000;stroke-dasharray:none;stroke-dashoffset:0;stroke-opacity:0.9;stroke-width:1.5"
         id="path92" /><path
         d="m 310.25338,382.2691 17.60728,-0.43647 12.80529,-0.51669 11.20463,-0.64511 11.20463,-0.87644 9.60397,-0.97504 9.60396,-1.21622 8.00331,-1.2194 8.00331,-1.42187 8.0033,-1.63418 8.00331,-1.85057 8.00331,-2.06385 8.0033,-2.26559 9.60397,-2.95474 11.20463,-3.70056 35.21455,-11.87179 8.00331,-2.35226 6.40264,-1.68611 6.40265,-1.47615 6.40264,-1.23636 6.40265,-0.97094 6.40264,-0.68505 4.80199,-0.31712 4.80198,-0.14407 4.80198,0.0307 4.80199,0.20515 4.80198,0.37706 6.40265,0.76202 6.40264,1.04305 6.40265,1.30218 6.40264,1.53449 6.40265,1.73601 8.00331,2.40176 9.60396,3.12961 17.60728,6.05407 14.40595,4.85849 9.60397,3.02815 9.60397,2.78404 8.0033,2.10321 8.00331,1.89143 8.00331,1.67503 8.0033,1.46146 8.00331,1.25676 9.60397,1.25711 9.60397,1.01095 9.60396,0.79726 11.20463,0.70432 12.80529,0.56836 14.40595,0.41642 6.40265,0.12901 v 0"
         clip-path="url(#p091ce7e2fb)"
         style="fill:#b7400f;fill-opacity:1;stroke:#000000;stroke-dasharray:none;stroke-dashoffset:0;stroke-opacity:0.9;stroke-width:1.5"
         id="path93" /><path
         d="m 369.47785,382.34229 17.60728,-0.38807 14.40595,-0.54193 11.20463,-0.62178 11.20463,-0.84995 9.60397,-0.94884 9.60396,-1.18497 8.00331,-1.1873 8.00331,-1.38146 8.0033,-1.58186 8.00331,-1.78173 9.60397,-2.38898 9.60397,-2.63083 11.20463,-3.30198 32.01322,-9.62541 8.00331,-2.1147 8.0033,-1.86305 6.40265,-1.26713 6.40265,-1.03795 6.40264,-0.7852 6.40265,-0.5143 6.40264,-0.23135 6.40265,0.0571 6.40264,0.3441 6.40265,0.62306 6.40264,0.8875 6.40265,1.13154 6.40264,1.35011 8.00331,1.94958 8.00331,2.18035 11.20463,3.31019 30.41256,9.17091 9.60397,2.60948 9.60397,2.36355 8.0033,1.75885 8.00331,1.55851 8.00331,1.35853 8.0033,1.16546 9.60397,1.1609 9.60397,0.92764 11.20463,0.82913 11.20463,0.60513 12.80529,0.47906 16.00661,0.37072 1.60066,0.0267 v 0"
         clip-path="url(#p091ce7e2fb)"
         style="fill:#b7400f;fill-opacity:1;stroke:#000000;stroke-dasharray:none;stroke-dashoffset:0;stroke-opacity:0.9;stroke-width:1.5"
         id="path94" /><path
         d="m 50.94625,382.32431 150.46216,-0.3076 89.63704,-0.38977 59.22447,-0.46352 43.21785,-0.54783 32.01323,-0.60914 25.61058,-0.69075 20.8086,-0.76387 17.60727,-0.85157 16.00662,-1.00167 12.80529,-1.01038 11.20463,-1.08094 11.20462,-1.3107 9.60397,-1.34559 9.60397,-1.58808 8.00331,-1.53311 8.0033,-1.73919 8.00331,-1.94781 9.60397,-2.58428 25.61058,-7.13216 4.80198,-1.06817 4.80199,-0.869 4.80198,-0.62532 4.80198,-0.347 4.80199,-0.0485 4.80198,0.25281 4.80199,0.53934 4.80198,0.79543 4.80198,1.00962 6.40265,1.59563 9.60397,2.69518 16.00661,4.54103 9.60397,2.4538 8.00331,1.82162 8.0033,1.61271 8.00331,1.41433 9.60397,1.46078 9.60396,1.23642 11.20463,1.20498 12.80529,1.12302 14.40596,1.00993 16.00661,0.88325 19.20794,0.81606 22.40925,0.7134 6.40265,0.16815 v 0"
         clip-path="url(#p091ce7e2fb)"
         style="fill:#b7400f;fill-opacity:1;stroke:#000000;stroke-dasharray:none;stroke-dashoffset:0;stroke-opacity:0.9;stroke-width:1.5"
         id="path95" /><path
         d="m 511.93671,382.45643 17.60728,-0.32515 14.40595,-0.48483 11.20463,-0.57877 11.20463,-0.81116 9.60396,-0.91863 9.60397,-1.1533 9.60397,-1.4051 9.60397,-1.65928 9.60397,-1.89629 11.20462,-2.45676 36.81521,-8.35459 8.00331,-1.45853 6.40265,-0.97213 6.40264,-0.76783 6.40265,-0.54034 6.40264,-0.29622 6.40265,-0.0429 6.40264,0.21182 6.40265,0.45989 6.40264,0.69374 6.40265,0.9065 8.00331,1.39084 8.0033,1.61887 11.20463,2.51889 28.81191,6.63549 9.60396,1.94468 9.60397,1.71459 9.60397,1.4624 9.60397,1.20861 9.60397,0.96908 9.60396,0.75461 8.00331,0.48726 v 0"
         clip-path="url(#p091ce7e2fb)"
         style="fill:#b7400f;fill-opacity:1;stroke:#000000;stroke-dasharray:none;stroke-dashoffset:0;stroke-opacity:0.9;stroke-width:1.5"
         id="path96" /><path
         d="m 582.36581,382.5378 19.20794,-0.29789 14.40595,-0.44248 11.20463,-0.5435 11.20462,-0.77318 9.60397,-0.87977 9.60397,-1.09997 9.60397,-1.32291 11.20463,-1.79877 14.40595,-2.59455 19.20794,-3.48523 9.60396,-1.5046 8.00331,-1.01985 6.40265,-0.62057 6.40264,-0.42134 6.40265,-0.20597 6.40264,0.0174 6.40265,0.24008 6.40264,0.45346 6.40265,0.64952 8.0033,1.05009 9.60397,1.5305 12.80529,2.30896 20.8086,3.77099 11.20463,1.77651 9.60397,1.30034 3.20132,0.38392 v 0"
         clip-path="url(#p091ce7e2fb)"
         style="fill:#b7400f;fill-opacity:1;stroke:#000000;stroke-dasharray:none;stroke-dashoffset:0;stroke-opacity:0.9;stroke-width:1.5"
         id="path97" /><path
         d="m 644.7916,382.61454 20.8086,-0.23029 16.00661,-0.39782 12.80529,-0.54234 11.20463,-0.68805 11.20463,-0.91249 11.20463,-1.13165 14.40595,-1.69808 22.40926,-2.68301 9.60397,-0.91944 8.0033,-0.56202 8.00331,-0.3325 8.00331,-0.0782 8.0033,0.18197 8.00331,0.42846 8.00331,0.64338 9.60397,0.99084 16.00661,1.93425 1.60066,0.19892 v 0"
         clip-path="url(#p091ce7e2fb)"
         style="fill:#b7400f;fill-opacity:1;stroke:#000000;stroke-dasharray:none;stroke-dashoffset:0;stroke-opacity:0.9;stroke-width:1.5"
         id="path98" /><path
         d="m 704.01607,382.66918 1.60066,-0.006 1.60066,-0.006 1.60066,-0.007 1.60067,-0.007 1.60066,-0.008 1.60066,-0.009 1.60066,-0.01 1.60066,-0.0106 1.60066,-0.0116 1.60066,-0.0126 1.60066,-0.0137 1.60067,-0.0149 1.60066,-0.0161 1.60066,-0.0174 1.60066,-0.0188 1.60066,-0.0203 1.60066,-0.0218 1.60066,-0.0234 1.60066,-0.0251 1.60067,-0.0269 1.60066,-0.0288 1.60066,-0.0307 1.60066,-0.0328 1.60066,-0.0349 1.60066,-0.037 1.60066,-0.0393 1.60066,-0.0416 1.60067,-0.0439 1.60066,-0.0464 1.60066,-0.0489 1.60066,-0.0514 1.60066,-0.054 1.60066,-0.0566 1.60066,-0.0592 1.60067,-0.0618 1.60066,-0.0645 1.60066,-0.0671 1.60066,-0.0697 1.60066,-0.0722 1.60066,-0.0748 1.60066,-0.0772 1.60066,-0.0796 1.60067,-0.082 1.60066,-0.0841 1.60066,-0.0863 1.60066,-0.0882 1.60066,-0.09 1.60066,-0.0917 1.60066,-0.0932 1.60067,-0.0945 1.60066,-0.0956 1.60066,-0.0965 1.60066,-0.0971 1.60066,-0.0975 1.60066,-0.0977 1.60066,-0.0976 1.60067,-0.0972 1.60066,-0.0966 1.60066,-0.0957 1.60066,-0.0944 1.60066,-0.0929 1.60066,-0.0911 1.60066,-0.089 1.60066,-0.0866 1.60067,-0.0839 1.60066,-0.0809 1.60066,-0.0776 1.60066,-0.0741 1.60066,-0.0702 1.60066,-0.0661 1.60066,-0.0618 1.60066,-0.0572 1.60067,-0.0524 1.60066,-0.0475 1.60066,-0.0423 1.60066,-0.0369 1.60066,-0.0314 1.60066,-0.0258 1.60066,-0.0201 1.60067,-0.0143 1.60066,-0.008 1.60066,-0.003 1.60066,0.003 1.60066,0.009 1.60066,0.0151 1.60066,0.0209 1.60066,0.0266 1.60067,0.0322 1.60066,0.0377 1.60066,0.043 1.60066,0.0481"
         clip-path="url(#p091ce7e2fb)"
         style="fill:#b7400f;fill-opacity:1;stroke:#000000;stroke-dasharray:none;stroke-dashoffset:0;stroke-opacity:0.9;stroke-width:1.5"
         id="path99" /><path
         d="m 50.94625,382.71766 h 798.73"
         style="fill:#b7400f;fill-opacity:1;stroke:#000000;stroke-width:0.8;stroke-linecap:square;stroke-linejoin:miter;stroke-dasharray:none;stroke-dashoffset:0;stroke-opacity:0.9"
         id="path102" /></g></g><g
     id="line2d_54"
     transform="matrix(0.60178907,0,0,1.4319254,-21.472252,-72.604028)"
     style="stroke:#ff0000;stroke-opacity:1"><path
       d="m 50.94625,363.37931 9.603968,-3.24185 11.204629,-4.03832 17.607275,-6.63783 28.811908,-11.11295 11.20462,-4.5127 9.60397,-4.10438 8.00331,-3.67682 6.40264,-3.15939 6.40265,-3.38554 6.40264,-3.62945 6.40265,-3.87241 8.00331,-5.13933 11.20463,-7.53113 11.20463,-7.49242 8.0033,-5.10606 9.60397,-5.82837 16.00661,-9.64035 6.40265,-4.13387 6.40264,-4.42135 6.40265,-4.75635 6.40264,-5.11117 6.40265,-5.46403 6.40264,-5.80017 6.40265,-6.11113 6.40265,-6.39334 8.0033,-8.34478 8.00331,-8.68951 8.00331,-8.99126 9.60396,-11.14076 9.60397,-11.48369 11.20463,-13.78819 11.20463,-14.1618 12.80529,-16.54563 24.00992,-31.15528 8.00331,-9.934336 6.40264,-7.541886 4.80199,-5.326287 4.80198,-4.970676 4.80198,-4.548041 3.20133,-2.764659 3.20132,-2.528993 3.20132,-2.275922 3.20132,-2.006887 3.20133,-1.723564 3.20132,-1.4278 3.20132,-1.12156 3.20132,-0.806872 3.20133,-0.485794 3.20132,-0.160403 3.20132,0.167211 3.20133,0.494941 3.20132,0.820643 3.20132,1.142137 3.20132,1.457219 3.20133,1.763674 3.20132,2.059333 3.20132,2.342123 3.20132,2.61014 3.20133,2.861721 3.20132,3.095499 4.80198,5.040244 4.80199,5.458004 4.80198,5.809667 6.40265,8.183474 6.40264,8.55662 9.60397,13.27553 32.01323,44.71465 8.0033,10.69057 8.00331,10.30303 6.40264,7.90404 6.40265,7.55915 6.40265,7.18213 6.40264,6.78643 6.40265,6.39133 6.40264,6.02126 6.40265,5.7033 8.0033,6.80023 16.00662,13.16229 27.21124,22.26752 6.40265,4.90402 6.40264,4.62033 6.40265,4.29206 6.40264,3.94632 6.40265,3.60747 6.40264,3.29446 6.40265,3.02013 6.40264,2.7916 8.00331,3.2417 9.60397,3.64645 43.21785,16.05427 12.80529,5.14015 16.00662,6.68777 28.8119,12.12807 9.60397,3.80356 3.20132,1.2149 v 0"
       clip-path="url(#p091ce7e2fb)"
       style="fill:none;stroke:#ff0000;stroke-width:3;stroke-linecap:square;stroke-opacity:1"
       id="path270" /></g><path
     d="m 50.94625,382.71766 12.906588,-13.45371 36.355282,-37.49972 v 0 l 3.89984,-2.14412 3.99445,-1.92291 4.0694,-1.74839 6.20156,-2.39755 16.64036,-6.18624 4.07689,-1.75243 v 0 l 13.3395,-6.13273 13.23527,-6.35824 13.11813,-6.59708 12.9881,-6.84924 12.84516,-7.11472 12.68932,-7.39354 4.19291,-2.52877 v 0 l -0.28921,-0.59642 v 0 l 4.34665,-2.24402 4.28399,-2.34601 8.38895,-4.97837 8.16514,-5.32744 7.9592,-5.63726 7.77115,-5.90782 7.60097,-6.13913 7.44867,-6.33118 7.31425,-6.48398 11.32107,-10.44736 4.7074,-4.52459 v 0 l 10.98985,2.42867 8.74431,2.15378 1.08886,0.28561 v 0 l 13.50389,-16.29914 20.45066,-24.29138 27.4884,-32.20912 41.26365,-48.283091 20.44683,-24.286978 6.76552,-8.135349 v 0 l 12.83822,15.727661 19.70694,23.656957 20.11324,23.7619 54.48171,64.10402 20.32057,24.40079 v 0 l 8.74903,-2.18186 9.87708,-2.21908 2.19691,-0.46712 v 0 l 5.27002,5.04537 v 0 l 10.75845,9.92658 7.31425,6.48398 7.44867,6.33118 7.60097,6.13913 7.77115,5.90782 7.9592,5.63726 8.16514,5.32744 8.38895,4.97837 4.28399,2.34601 4.34665,2.24402 0.2892,0.59641 v 0 l 8.40458,5.02509 12.7427,7.29912 12.89424,7.02475 13.03287,6.76371 13.15862,6.51598 13.27144,6.28159 10.93454,4.95466 6.17614,2.47086 20.75492,7.81825 4.03438,1.83421 3.9496,2.03258 1.93686,1.10517 v 0 l 10.2856,10.76742 15.64442,15.94442 15.61761,15.98604 7.69818,8.11047 v 0"
     clip-path="url(#p091ce7e2fb)"
     style="fill:none;stroke:#000000;stroke-width:2.2;stroke-linecap:square;stroke-dasharray:2.2, 2.2;stroke-dashoffset:0.66;stroke-opacity:0.9"
     id="path271"
     transform="matrix(0.60178907,0,0,1.4319254,-21.472252,-85.491352)" /><path
     id="ridgeline-7"
     d="m 10.161774,459.49437 c 9.688432,-24.54177 19.894486,-47.8492 29.565052,-72.34847 7.311028,-10.25056 15.659826,-14.75773 23.346221,-23.00924 16.981579,-18.11925 33.587725,-38.27767 49.496773,-61.24575 v 0 l -0.17803,-0.85355 c 16.65984,-19.77808 30.97609,-48.70203 44.47196,-78.81573 1.07252,-2.33937 2.12895,-4.75938 3.16573,-7.18379 4.18283,2.08415 8.36392,4.33381 12.51101,6.92836 25.56173,-73.79563 52.359,-145.162478 78.04588,-218.7028164 24.13783,70.9006754 50.93515,142.2675464 76.53269,216.0630564 4.1471,-2.59453 8.32814,-4.84417 12.51096,-6.92829 1.03675,2.4244 2.09318,4.84443 3.1657,7.18375 13.4959,30.11368 27.81216,59.03765 44.47195,78.81574 l 0.17882,0.85356 v 0 c 15.90907,22.96808 32.51526,43.12649 49.49666,61.24579 7.68641,8.20894 16.03526,12.75861 23.34636,23.00921 9.68843,24.49924 19.89435,47.80668 29.56493,72.34848"
     style="fill:none;stroke:#000000;stroke-width:4.13603;stroke-dasharray:4.13603, 8.27205;stroke-dashoffset:0;stroke-opacity:0.9"
     sodipodi:nodetypes="cccscccccccccccsccc"
     inkscape:export-filename="ridgeline.svg"
     inkscape:export-xdpi="96"
     inkscape:export-ydpi="96" /><defs
     id="defs271"><clipPath
       id="p091ce7e2fb"><rect
         x="50.946251"
         y="24.597656"
         width="798.72998"
         height="358.12"
         id="rect271" /></clipPath></defs></svg>
